<?xml version="1.0" encoding="UTF-8" standalone="no"?>
<svg width="17px" height="20px" viewBox="0 0 17 20" version="1.1" xmlns="http://www.w3.org/2000/svg" xmlns:xlink="http://www.w3.org/1999/xlink" xmlns:sketch="http://www.bohemiancoding.com/sketch/ns">
    <!-- Generator: Sketch 3.4.2 (15855) - http://www.bohemiancoding.com/sketch -->
    <title>github</title>
    <desc>Created with Sketch.</desc>
    <defs></defs>
    <g id="Page-1" stroke="none" stroke-width="1" fill="none" fill-rule="evenodd" sketch:type="MSPage">
        <path d="M7.5005356,12.8795677 C7.5005356,12.8795677 4.98227953,13.0233811 3.57534329,11.4977417 C2.16840705,9.97210236 1.67038663,7.3041358 2.10677275,6.10302771 C2.54315886,4.90191962 3.1945042,4.11418007 3.19450414,4.11418007 C3.19450409,4.11418007 2.98144724,3.62072496 2.98144727,2.4120077 C2.98144731,1.20329044 3.44693848,0.975585938 3.44693848,0.975585938 C3.44693848,0.975585938 4.35262036,0.983385309 5.12628314,1.35680552 C5.89994593,1.73022574 6.34032682,2.07587247 6.34032682,2.07587247 C6.34032682,2.07587247 7.87890173,1.76199407 9.19395723,1.76199405 C10.5090127,1.76199403 12.6283578,2.07587247 12.6283578,2.07587247 C12.6283578,2.07587247 13.218259,1.73269869 13.9397989,1.35680552 C14.6613388,0.980912359 15.6065885,0.980912359 15.6065885,0.980912359 C15.6065885,0.980912359 15.8717682,1.35680552 15.8717682,2.41200772 C15.8717682,3.46720992 15.7616261,4.11418011 15.7616254,4.1141799 C15.7616247,4.1141797 16.8691413,5.63125877 16.8691406,7.04180953 C16.8691399,8.45236029 16.7249475,9.87831913 15.7616254,11.0236902 C14.7983033,12.1690612 14.3655322,12.1213133 13.7269323,12.4494591 C13.0883324,12.7776049 11.7356115,12.9240813 11.7356115,12.9240813 C11.7356115,12.9240813 12.3489109,13.6907054 12.3489109,14.211934 C12.348911,14.7331626 12.143273,18.3463784 12.4210078,18.5645717 C12.6987427,18.7827649 13.0468624,18.941416 13.0468624,18.941416 C13.0468624,18.941416 10.4819116,19.3909658 9.19395723,19.3935911 C8.11774134,19.3957849 5.95435148,18.9558734 5.95435148,18.9558734 C5.95435148,18.9558734 6.63955755,18.9290509 6.63955758,18.5645717 C6.63955762,18.2000924 6.63974781,16.1256412 6.63974781,16.1256412 L4.837515,16.1256412 C4.837515,16.1256412 3.72486357,16.0771326 3.19450414,15.5214728 C2.66414472,14.9658131 2.52870143,14.0831486 2.10677275,13.8054139 C1.68484406,13.5276792 0.869140625,12.4494591 0.869140625,12.4494591 C0.869140625,12.4494591 1.42670284,11.9748367 2.10677275,12.4494591 C2.78684265,12.9240815 3.00142136,13.7734552 3.72828768,14.1847312 C4.45515401,14.5960072 4.39922658,14.7637892 5.3697767,14.7637893 C6.34032682,14.7637895 6.63955758,14.4752114 6.63955758,14.4752114 C6.63955758,14.4752114 6.59770713,13.8291924 7.04912136,13.376637 C7.5005356,12.9240815 7.5005356,12.8795677 7.5005356,12.8795677 Z" id="github" fill="#FFFFFF" sketch:type="MSShapeGroup"></path>
    </g>
</svg>