<?xml version="1.0" encoding="UTF-8" standalone="no"?>
<svg width="16px" height="18px" viewBox="0 0 16 18" version="1.1" xmlns="http://www.w3.org/2000/svg" xmlns:xlink="http://www.w3.org/1999/xlink" xmlns:sketch="http://www.bohemiancoding.com/sketch/ns">
    <!-- Generator: Sketch 3.4.2 (15855) - http://www.bohemiancoding.com/sketch -->
    <title>github</title>
    <desc>Created with Sketch.</desc>
    <defs></defs>
    <g id="Page-1" stroke="none" stroke-width="1" fill="none" fill-rule="evenodd" sketch:type="MSPage">
        <path d="M6.809956,11.6399119 C6.809956,11.6399119 4.55394585,11.7687489 3.29352501,10.4019864 C2.03310417,9.03522396 1.58694654,6.64509385 1.97788833,5.56906665 C2.36883011,4.49303945 2.9523457,3.78733344 2.95234565,3.78733344 C2.9523456,3.78733344 2.76147605,3.34526572 2.76147608,2.26242174 C2.76147611,1.17957777 3.17849201,0.975585938 3.17849201,0.975585938 C3.17849201,0.975585938 3.98985807,0.982573098 4.68295323,1.31710611 C5.37604839,1.65163913 5.77056894,1.96129093 5.77056894,1.96129093 C5.77056894,1.96129093 7.14891987,1.68009917 8.32702825,1.68009915 C9.50513662,1.68009914 11.4037776,1.96129093 11.4037776,1.96129093 C11.4037776,1.96129093 11.9322477,1.65385455 12.5786479,1.31710611 C13.2250482,0.980357677 14.0718615,0.980357677 14.0718615,0.980357677 C14.0718615,0.980357677 14.3094259,1.31710611 14.3094259,2.26242176 C14.3094259,3.20773742 14.2107538,3.78733348 14.2107532,3.78733329 C14.2107525,3.78733311 15.2029347,5.14642674 15.2029341,6.41008569 C15.2029335,7.67374465 15.0737569,8.95120712 14.2107532,9.97730163 C13.3477494,11.0033961 12.9600462,10.9606206 12.3879488,11.254594 C11.8158514,11.5485673 10.604,11.67979 10.604,11.67979 C10.604,11.67979 11.1534316,12.3665795 11.1534317,12.8335284 C11.1534317,13.3004773 10.9692084,16.5374204 11.2180206,16.7328915 C11.4668327,16.9283625 11.7786999,17.070492 11.7786999,17.070492 C11.7786999,17.070492 9.48085778,17.4732266 8.32702825,17.4755786 C7.36288723,17.4775439 5.42478826,17.0834439 5.42478826,17.0834439 C5.42478826,17.0834439 6.0386384,17.0594146 6.03863843,16.7328915 C6.03863847,16.4063683 6.03880885,14.5479462 6.03880885,14.5479462 L4.42425679,14.5479462 C4.42425679,14.5479462 3.42747455,14.5044891 2.95234565,14.0066946 C2.47721675,13.5089001 2.35587824,12.7181544 1.97788833,12.4693425 C1.59989841,12.2205305 0.869140625,11.254594 0.869140625,11.254594 C0.869140625,11.254594 1.36863947,10.8293978 1.97788833,11.254594 C2.58713718,11.6797902 2.7793701,12.4407119 3.43054209,12.8091585 C4.08171408,13.177605 4.03161082,13.3279145 4.90108988,13.3279147 C5.77056894,13.3279148 6.03863843,13.0693887 6.03863843,13.0693887 C6.03863843,13.0693887 6.0011462,12.4906447 6.4055511,12.0852174 C6.809956,11.6797902 6.809956,11.6399119 6.809956,11.6399119 Z" id="github" fill="#FFFFFF" sketch:type="MSShapeGroup"></path>
    </g>
</svg>