<?xml version="1.0" encoding="UTF-8" standalone="no"?>
<svg width="83px" height="96px" viewBox="0 0 83 96" version="1.1" xmlns="http://www.w3.org/2000/svg" xmlns:xlink="http://www.w3.org/1999/xlink" xmlns:sketch="http://www.bohemiancoding.com/sketch/ns">
    <!-- Generator: Sketch 3.4.2 (15855) - http://www.bohemiancoding.com/sketch -->
    <title>github</title>
    <desc>Created with Sketch.</desc>
    <defs></defs>
    <g id="Page-1" stroke="none" stroke-width="1" fill="none" fill-rule="evenodd" sketch:type="MSPage">
        <path d="M34.9121094,62.0859375 C34.9121094,62.0859375 21.984375,62.8242188 14.7617187,54.9921875 C7.5390625,47.1601563 4.98242187,33.4638672 7.22265625,27.2978516 C9.46289062,21.1318359 12.8066409,17.0878915 12.8066406,17.0878915 C12.8066403,17.0878915 11.7128904,14.5546874 11.7128906,8.34960927 C11.7128908,2.14453114 14.1025391,0.975585938 14.1025391,0.975585938 C14.1025391,0.975585938 18.7519529,1.01562484 22.7236328,2.93261708 C26.6953127,4.84960932 28.9560547,6.62402344 28.9560547,6.62402344 C28.9560547,6.62402344 36.854492,5.01269542 43.6054687,5.01269531 C50.3564455,5.0126952 61.2363281,6.62402344 61.2363281,6.62402344 C61.2363281,6.62402344 64.2646484,4.86230445 67.96875,2.93261707 C71.6728516,1.00292969 76.5253906,1.00292969 76.5253906,1.00292969 C76.5253906,1.00292969 77.8867188,2.93261707 77.8867188,8.34960938 C77.8867188,13.7666017 77.3212927,17.0878917 77.3212891,17.0878906 C77.3212854,17.0878896 83.0068396,24.8759757 83.0068359,32.1171875 C83.0068323,39.3583993 82.2666052,46.6787101 77.3212891,52.5585938 C72.3759729,58.4384774 70.1542967,58.1933585 66.8759766,59.8779297 C63.5976564,61.5625008 56.6533203,62.3144531 56.6533203,62.3144531 C56.6533203,62.3144531 59.8017576,66.2499992 59.8017578,68.9257813 C59.801758,71.6015633 58.7460936,90.1503898 60.171875,91.2705078 C61.5976564,92.3906258 63.3847656,93.2050781 63.3847656,93.2050781 C63.3847656,93.2050781 50.2173192,95.5128895 43.6054688,95.5263672 C38.0806005,95.5376291 26.9746094,93.2792969 26.9746094,93.2792969 C26.9746094,93.2792969 30.4921873,93.1416007 30.4921875,91.2705078 C30.4921877,89.3994149 30.4931641,78.75 30.4931641,78.75 L21.2412109,78.75 C21.2412109,78.75 15.5292969,78.5009757 12.8066406,75.6484375 C10.0839843,72.7958993 9.38867186,68.2646476 7.22265625,66.8388672 C5.05664064,65.4130868 0.869140625,59.8779297 0.869140625,59.8779297 C0.869140625,59.8779297 3.73144531,57.4414054 7.22265625,59.8779297 C10.7138672,62.314454 11.8154297,66.6748038 15.546875,68.7861328 C19.2783203,70.8974618 18.9912109,71.7587882 23.9736328,71.7587891 C28.9560547,71.7587899 30.4921875,70.2773438 30.4921875,70.2773438 C30.4921875,70.2773438 30.2773438,66.9609367 32.5947266,64.6376953 C34.9121094,62.314454 34.9121094,62.0859375 34.9121094,62.0859375 Z" id="github" fill="#FFFFFF" sketch:type="MSShapeGroup"></path>
    </g>
</svg>